<?xml version="1.0" encoding="utf-8"?>
<!-- Generator: Adobe Illustrator 18.0.0, SVG Export Plug-In . SVG Version: 6.00 Build 0)  -->
<!DOCTYPE svg PUBLIC "-//W3C//DTD SVG 1.1//EN" "http://www.w3.org/Graphics/SVG/1.1/DTD/svg11.dtd">
<svg version="1.1" id="Layer_1" xmlns="http://www.w3.org/2000/svg" xmlns:xlink="http://www.w3.org/1999/xlink" x="0px" y="0px"
	 viewBox="0 0 256 256" enable-background="new 0 0 256 256" xml:space="preserve">
<path fill="#FFFFFF" d="M192,192c-42.8,0-85.3,0-128.1,0c0-5.2-0.1-10.3,0.1-15.4c0.1-1.2,1-2.7,2-3.4c4.8-3.2,9.5-6.4,14.6-9
	c5.9-3,12.2-5.1,18.2-7.8c2.2-1,4.3-2.2,6.3-3.5c6.3-4,9-10,8.5-17.3c-0.1-1.6-0.9-3.4-2-4.7c-2.8-3.3-4.2-7-5.2-11.1
	c-0.3-1.4-1.6-2.5-2.5-3.7c-0.9-1.2-2.3-2.1-2.7-3.4c-1.2-3.8-2.1-7.7,0.8-11.4c0.5-0.6,0.3-1.8,0.2-2.7c-0.3-2.4-0.7-4.7-1-7.1
	c-1.9-13.7,6.7-25,20.4-27c5.5-0.8,11-0.7,16.4,0.8c12.1,3.4,19,14.1,17.1,26.5c-0.3,1.7-0.5,3.5-0.8,5.2c-0.4,2.1-0.3,4,0.9,6
	c2.4,4.1,0.4,10.8-3.5,13.5c-0.8,0.5-1.5,1.5-1.7,2.4c-1,4.8-2.7,9.1-6,12.8c-1,1.1-1.5,2.9-1.5,4.4c-0.2,6.4,1.6,12.2,7.2,15.8
	c4.2,2.7,8.8,4.8,13.3,6.9c6.1,2.8,12.3,5.4,18.3,8.2c2.1,1,4,2.4,5.9,3.6c3.6,2.3,5.5,5.2,5,9.8C191.7,184.2,192,188.1,192,192z"/>
</svg>
