<?xml version="1.0" encoding="utf-8"?>
<!-- Generator: Adobe Illustrator 18.0.0, SVG Export Plug-In . SVG Version: 6.00 Build 0)  -->
<!DOCTYPE svg PUBLIC "-//W3C//DTD SVG 1.1//EN" "http://www.w3.org/Graphics/SVG/1.1/DTD/svg11.dtd">
<svg version="1.1" id="Layer_1" xmlns="http://www.w3.org/2000/svg" xmlns:xlink="http://www.w3.org/1999/xlink" x="0px" y="0px"
	 viewBox="0 0 256 256" enable-background="new 0 0 256 256" xml:space="preserve">
<g>
	<path fill="#FFFFFF" d="M128,178.1c-18.3,0-36.5,0-54.8,0c-5.5,0-9.2-3.7-9.2-9.3c0-14.8,0-29.5,0-44.3c0-5.6-0.1-11.2,0-16.7
		c0-1.3,0.5-2.5,0.8-3.8c1.1,0.4,2.4,0.7,3.4,1.3c17.3,10.9,34.5,21.7,51.7,32.8c5.5,3.5,10.5,3.6,16,0.1
		c17-10.9,34.2-21.7,51.3-32.5c0.7-0.4,1.3-0.9,2-1.3c1.9-1,2.7-0.5,2.7,1.6c0,4,0,8,0,12c0,17,0,34,0,51c0,5.6-3.6,9.2-9.2,9.2
		C164.5,178.1,146.3,178.1,128,178.1z"/>
	<path fill="#FFFFFF" d="M128.2,77.9c19.5,0,38.9,0,58.4,0c1,0,1.9,0,2.9,0.2c2,0.4,3.1,1.9,2.3,3.7c-1,2.2-2.3,4.6-4.1,5.9
		c-17.6,11.7-35.3,23.2-53,34.6c-4.2,2.7-8.9,2.6-13.2-0.1c-17.7-11.4-35.3-22.9-52.9-34.4c-2.3-1.5-3.9-3.6-4.2-6.4
		c-0.2-1.9,0.7-3,2.6-3.3c0.9-0.1,1.7-0.1,2.6-0.1C89.1,77.9,108.7,77.9,128.2,77.9z"/>
</g>
</svg>
