<?xml version="1.0" encoding="utf-8"?>
<!-- Generator: Adobe Illustrator 18.0.0, SVG Export Plug-In . SVG Version: 6.00 Build 0)  -->
<!DOCTYPE svg PUBLIC "-//W3C//DTD SVG 1.1//EN" "http://www.w3.org/Graphics/SVG/1.1/DTD/svg11.dtd">
<svg version="1.1" id="Layer_1" xmlns="http://www.w3.org/2000/svg" xmlns:xlink="http://www.w3.org/1999/xlink" x="0px" y="0px"
	 viewBox="0 0 256 256" enable-background="new 0 0 256 256" xml:space="preserve">
<path fill="#FFFFFF" d="M130.6,192c-2.1,0-4.3,0-6.4,0c-1.1-0.2-2.2-0.4-3.3-0.5c-27-2.9-49.6-23.4-55.2-49.9
	c-0.7-3.2-1.1-6.5-1.6-9.8c0-2.6,0-5.1,0-7.7c0.1-0.5,0.3-0.9,0.4-1.4c2.3-28.2,22.5-51.2,50.2-57.2c3.2-0.7,6.4-1.1,9.6-1.6
	c2.6,0,5.1,0,7.7,0c1.1,0.2,2.2,0.4,3.3,0.5c27.7,3,50.6,24.3,55.6,51.7c0.5,2.6,0.8,5.3,1.2,7.9c0,2.6,0,5.1,0,7.7
	c-0.3,1.7-0.5,3.5-0.8,5.2c-4.5,26.1-19.4,43.5-44.4,51.9C141.6,190.7,136,191,130.6,192z M128.1,166.3c17.1,0,32-11.2,36.7-27.7
	c0.8-2.8,0-4.8-2.1-5.4c-2.3-0.7-4.1,0.5-5,3.3c-1.4,4.9-3.9,9.3-7.5,13c-16.7,17.1-44.7,10.2-51.9-12.9c-0.9-3-2.7-4.2-5.1-3.4
	c-2,0.7-2.8,2.7-1.9,5.5C95.9,155.1,110.9,166.3,128.1,166.3z"/>
</svg>
