<?xml version="1.0" encoding="utf-8"?>
<!-- Generator: Adobe Illustrator 18.0.0, SVG Export Plug-In . SVG Version: 6.00 Build 0)  -->
<!DOCTYPE svg PUBLIC "-//W3C//DTD SVG 1.1//EN" "http://www.w3.org/Graphics/SVG/1.1/DTD/svg11.dtd">
<svg version="1.1" id="Layer_1" xmlns="http://www.w3.org/2000/svg" xmlns:xlink="http://www.w3.org/1999/xlink" x="0px" y="0px"
	 viewBox="0 0 256 256" enable-background="new 0 0 256 256" xml:space="preserve">
<path fill="#FFFFFF" d="M138.4,108.2c2.3,0,4.4,0,6.6,0c5.5,0,11,0,16.5,0c1.2,0,2.2-0.1,2.2,1.7c-0.1,6.2,0,12.5-0.1,18.7
	c0,0.2-0.1,0.4-0.3,0.9c-8.2,0-16.5,0-24.9,0c0,21,0,41.6,0,62.5c-8.1,0-16,0-24.4,0c0-1,0-2,0-3c0-18.8,0-37.7,0.1-56.5
	c0-2.5-0.7-3.1-3.1-3c-5.3,0.2-10.5,0.1-15.8,0.1c-0.9,0-1.7,0-2.9,0c0-2.4,0-4.5,0-6.7c0-4.1,0.1-8.1,0-12.2
	c-0.1-2,0.7-2.5,2.5-2.4c5.5,0.1,11-0.1,16.5,0.1c2.1,0.1,2.9-0.5,2.9-2.8c0-5.3-0.2-10.7,0.6-16c2.1-14.1,13.7-26,29.9-25.5
	c5.6,0.2,11.2,0.1,16.8,0c1.7,0,2.4,0.4,2.4,2.3c-0.1,6.1-0.1,12.1,0,18.2c0,1.9-0.7,2.3-2.4,2.2c-5.3-0.1-10.7,0-16.1,0
	c-4.2,0-6.6,1.8-6.8,6C138.2,97.7,138.4,102.8,138.4,108.2z"/>
</svg>
