<?xml version="1.0" encoding="utf-8"?>
<!-- Generator: Adobe Illustrator 18.0.0, SVG Export Plug-In . SVG Version: 6.00 Build 0)  -->
<!DOCTYPE svg PUBLIC "-//W3C//DTD SVG 1.1//EN" "http://www.w3.org/Graphics/SVG/1.1/DTD/svg11.dtd">
<svg version="1.1" id="Layer_1" xmlns="http://www.w3.org/2000/svg" xmlns:xlink="http://www.w3.org/1999/xlink" x="0px" y="0px"
	 viewBox="0 0 256 256" enable-background="new 0 0 256 256" xml:space="preserve">
<g>
	<path fill="#FFFFFF" d="M129.8,192c-11.5-0.6-21.3-0.6-30.9-1.8c-24.9-3.1-41.6-20-45.1-44.8c-1.1-7.9-1.6-15.8-0.1-23.7
		c1.4-7.4,4.8-13.9,9.5-19.8c0.7-0.9,1.3-2.3,1.3-3.4c-0.6-10.9,1.2-21.4,4.5-31.7c0.8-2.6,2-3,4.5-2.4c11.5,3,21.9,8.5,31.9,14.9
		c1.2,0.8,3.1,1.1,4.6,0.9c12-1.7,24-1.7,36.1,0c1.5,0.2,3.4-0.2,4.6-1c9.8-6.3,20-11.7,31.4-14.6c3.7-0.9,3.7-0.9,4.9,2.7
		c3.4,10.3,5.4,20.8,4.3,31.7c-0.1,0.7,0.3,1.7,0.7,2.2c10,11.2,12.1,24.6,10.8,38.8c-0.7,7.7-2.3,15.2-5.6,22.2
		c-7.5,15.7-20.4,24.5-37.1,27.4C149.7,191.4,138.8,191.3,129.8,192z M127.9,183.5c3.5,0,7,0.3,10.4-0.1c7.5-0.8,15.1-1.3,22.5-3.1
		c11.1-2.7,18.9-9.4,21.1-21.2c0.7-3.6,0.9-7.3,0.8-10.9c-0.5-10.8-8.3-20-18.8-21.9c-3.6-0.7-7.5-0.9-11.2-0.6
		c-13.8,0.9-27.7,1.7-41.5,0.4c-4.6-0.4-9.2-0.5-13.7-0.4c-7.7,0.2-14.2,2.8-18.9,9.2c-11.4,15.5-3.5,38.8,15.3,44.9
		C104.8,183.6,116.4,183.5,127.9,183.5z"/>
	<path fill="#FFFFFF" d="M143.1,152.8c0.1-4.5,1.2-8.7,4.5-12c3.7-3.6,8.5-3.7,12.3-0.2c6.4,5.8,6.4,18.7,0.2,24.6
		c-3.9,3.6-9,3.5-12.7-0.4C144.2,161.5,143.1,157.3,143.1,152.8z"/>
	<path fill="#FFFFFF" d="M91.4,152.9c-0.2-4.2,1-8,3.6-11.2c3.7-4.5,9.5-4.8,13.5-0.8c5.9,5.9,5.9,18.1,0,24.1
		c-4,4.1-9.5,3.9-13.3-0.4C92.4,161.2,91.2,157.2,91.4,152.9z"/>
</g>
</svg>
