<?xml version="1.0" encoding="utf-8"?>
<!-- Generator: Adobe Illustrator 18.0.0, SVG Export Plug-In . SVG Version: 6.00 Build 0)  -->
<!DOCTYPE svg PUBLIC "-//W3C//DTD SVG 1.1//EN" "http://www.w3.org/Graphics/SVG/1.1/DTD/svg11.dtd">
<svg version="1.1" id="Layer_1" xmlns="http://www.w3.org/2000/svg" xmlns:xlink="http://www.w3.org/1999/xlink" x="0px" y="0px"
	 viewBox="0 0 256 256" enable-background="new 0 0 256 256" xml:space="preserve">
<path fill="#FFFFFF" d="M142.3,191.8c0-16.2,0-32.3,0-48.5c-9.6,0-18.8,0-28.4,0c0,16.2,0,32.3,0,48.6c-1.2,0.1-2,0.1-2.9,0.1
	c-8.4,0-16.7,0-25.1,0c-4.6,0-6-1.4-6-6c0-15.2,0-30.5,0-45.7c0-1,0-2,0-3.5c-3.5,0-6.7,0-9.9,0c-2.1,0-4.6,0.5-5.7-2
	c-1-2.4,0.9-4,2.3-5.6c18.5-20.7,37-41.4,55.4-62.1c3.8-4.2,8.1-4.3,11.8-0.1c18.7,20.8,37.3,41.7,55.9,62.6c0.4,0.5,0.8,1,1.2,1.5
	c2,3,0.9,5.4-2.7,5.6c-3.1,0.2-6.2,0-9.3,0c-0.9,0-1.7,0-2.8,0c0,1.2,0,2.2,0,3.1c0,14.8,0,29.7,0,44.5c0,1.3,0,2.6-0.1,3.8
	c-0.3,2.5-1.5,3.7-3.8,3.7c-9.6,0-19.1,0-28.7,0C143.2,192,142.9,191.9,142.3,191.8z"/>
</svg>
