<?xml version="1.0" encoding="utf-8"?>
<!-- Generator: Adobe Illustrator 18.0.0, SVG Export Plug-In . SVG Version: 6.00 Build 0)  -->
<!DOCTYPE svg PUBLIC "-//W3C//DTD SVG 1.1//EN" "http://www.w3.org/Graphics/SVG/1.1/DTD/svg11.dtd">
<svg version="1.1" id="Layer_1" xmlns="http://www.w3.org/2000/svg" xmlns:xlink="http://www.w3.org/1999/xlink" x="0px" y="0px"
	 viewBox="0 0 256 256" enable-background="new 0 0 256 256" xml:space="preserve">
<path fill="#FFFFFF" d="M60.1,69.8c17.5,20.5,39.2,31.7,65,33.7c0.5-5.5,0.2-10.7,1.5-15.4c6.1-23.3,34.4-31.8,52.5-16
	c1.9,1.6,3.5,2.2,5.7,1.3c4.8-1.9,9.6-3.8,14.4-5.7c0.7-0.3,1.4-0.6,2.1-1c-0.5,4.7-3,8.3-12.4,17.7c6.1-1.7,11.4-3.2,16.7-4.8
	c0.2,0.2,0.4,0.3,0.6,0.5c-3.5,3.9-6.6,8.4-10.8,11.5c-4.3,3.3-5.3,6.9-5.4,12.1c-1.5,40-30,80.1-75.8,87c-22,3.4-42.7,0-62-11.2
	c-1-0.6-1.9-1.2-2.8-2.1c16.9,1.3,32.2-2.8,46.3-13c-14.5-1.8-24.2-9-29.4-22.8c4.4,0,8.4,0,12.4,0c0.1-0.2,0.1-0.5,0.2-0.7
	c-6.9-2.3-12.9-6-17.2-11.9c-4.3-5.8-6.6-12.3-6.3-19.6c4.4,1.3,8.6,2.5,12.8,3.8c0.1-0.2,0.3-0.4,0.4-0.6
	c-6.5-5.1-10.8-11.6-12.4-19.6C54.6,84.9,55.8,77.4,60.1,69.8z"/>
</svg>
