<?xml version="1.0" encoding="utf-8"?>
<!-- Generator: Adobe Illustrator 18.0.0, SVG Export Plug-In . SVG Version: 6.00 Build 0)  -->
<!DOCTYPE svg PUBLIC "-//W3C//DTD SVG 1.1//EN" "http://www.w3.org/Graphics/SVG/1.1/DTD/svg11.dtd">
<svg version="1.1" id="Layer_1" xmlns="http://www.w3.org/2000/svg" xmlns:xlink="http://www.w3.org/1999/xlink" x="0px" y="0px"
	 viewBox="0 0 256 256" enable-background="new 0 0 256 256" xml:space="preserve">
<g>
	<path fill="#FFFFFF" d="M190.3,64c0.5,0.8,1.4,1.7,1.3,2.4c-0.2,1.6-0.6,3.3-1.4,4.7c-3.7,6-7.2,12.2-11.3,17.9
		c-14.5,20-29.9,39.3-47.3,56.9c-3.1,3.1-6.9,5.5-10.4,8.2c-1.3,1-2.2,0.6-3-0.8c-3.4-6.5-8.3-11.6-14.9-14.9
		c-1.6-0.8-1.7-1.7-0.8-3.2c4.2-7.3,10.3-12.9,16.4-18.4c18.1-16.3,36.7-31.8,56.9-45.3c3.2-2.2,6.7-4,10.1-5.8
		C187.1,64.9,188.4,64.6,190.3,64z"/>
	<path fill="#FFFFFF" d="M70.7,191.8c-1.2-0.1-2.4,0-3.6-0.2c-3-0.6-3.5-2-1.5-4.4c3.9-4.6,6.5-9.8,7.6-15.7c0.6-3.2,1-6.4,1.6-9.6
		c0.1-0.7,0.3-1.4,0.5-2.1c3.6-11.5,14.8-15.4,24.5-8.3c5.5,4,9.4,9,9.6,16.2c0.1,3.9-1.3,7.1-4,9.8c-7.3,7.1-16.2,11-26,13.1
		c-2.8,0.6-5.8,0.9-8.7,1.3C70.7,191.9,70.7,191.9,70.7,191.8z"/>
</g>
</svg>
